<svg xmlns="http://www.w3.org/2000/svg" width="9.997" height="18" viewBox="0 0 9.997 18">
    <path id="Path_4" data-name="Path 4" d="M20.984,16.2c-.019.062-.032.127-.057.187a1.007,1.007,0,0,1-.217.325l-8.005,8a1.341,1.341,0,0,1-.324.217,1,1,0,0,1-1.215-1.48c.036-.055.083-.1.124-.152l7.3-7.3-7.3-7.3-.124-.152c-.031-.058-.067-.113-.092-.173a1,1,0,0,1,1.48-1.215c.054.037.1.083.151.125l8.005,8c.041.051.088.1.124.152a1,1,0,0,1,.15.36,1.384,1.384,0,0,1,0,.391Z" transform="translate(-11.002 -7)" />
</svg>
  