<svg xmlns="http://www.w3.org/2000/svg" width="20" height="20" viewBox="0 0 20 20">
    <g id="Group_2" data-name="Group 2" transform="translate(-204 -453)">
        <g id="Group_1" data-name="Group 1" transform="translate(198 447)">
            <path id="Path_1" data-name="Path 1" d="M16,6A10,10,0,1,0,26,16,10,10,0,0,0,16,6Zm0,18a8,8,0,1,1,8-8A8,8,0,0,1,16,24Z" />
            <path id="Path_2" data-name="Path 2" d="M19.29,13.29,16,16.59l-3.29-3.3a1,1,0,0,0-1.42,1.42l4,4a1,1,0,0,0,1.42,0l4-4a1,1,0,0,0-1.42-1.42Z" />
        </g>
    </g>
</svg>
  